# xmcd
#
# Track frame offsets: 
#        150
#        16265
#        32000
#        46620
#        66728
#        94560
#        109488
#        127020
#        145308
#        168740
#        198278
#        219448
#        231130
#        254023
#
# Disc length: 3742 seconds
#
# Revision: 8
# Processed by: cddbd v1.5.2PL0 Copyright (c) Steve Scherf et al.
# Submitted via: ExactAudioCopy v1.0b3
#
DISCID=ce0e9c0e
DTITLE=Bryan Adams - So Far So Good
DYEAR=1993
DGENRE=Rock
TTITLE0=Summer Of '69
TTITLE1=Straight From The Heart
TTITLE2=It's Only Love
TTITLE3=Can't Stop This Thing We Started
TTITLE4=Do I Have To Say The Words
TTITLE5=This Time
TTITLE6=Run To You
TTITLE7=Heaven
TTITLE8=Cuts Like A Knife
TTITLE9=(Every Thing I Do) I Do It For You
TTITLE10=Somebody
TTITLE11=Kids Wanna Rock
TTITLE12=Heat Of The Night
TTITLE13=Please Forgive Me
EXTD=YEAR: 1993
EXTT0=
EXTT1=
EXTT2=
EXTT3=
EXTT4=
EXTT5=
EXTT6=
EXTT7=
EXTT8=
EXTT9=
EXTT10=
EXTT11=
EXTT12=
EXTT13=
PLAYORDER=
